# xmcd
#
# Track frame offsets: 
#        225
#        16342
#        35635
#        47118
#        61616
#        79715
#        91370
#        105355
#        122004
#        132706
#
# Disc length: 1938 seconds
#
# Revision: 20
# Processed by: cddbd v1.5.2PL0 Copyright (c) Steve Scherf et al.
# Submitted via: ExactAudioCopy v1.3
#
DISCID=7c078f0a
DTITLE=Amy Winehouse - Back To Black
DYEAR=2006
DGENRE=R&B
TTITLE0=Rehab
TTITLE1=You Know I'm No Good
TTITLE2=Me and Mr. Jones
TTITLE3=Just Friends
TTITLE4=Back To Black
TTITLE5=Love Is A Losing Game
TTITLE6=Tears Dry On Their Own
TTITLE7=Wake Up Alone
TTITLE8=Some Unholy War
TTITLE9=He Can Only Hold Her
EXTD=Release date: 1995\nRelease country: AU\nRelease catalog#: 171421
EXTD=1\nRelease label: Island\nBarcode: 602517142114
EXTT0=
EXTT1=
EXTT2=
EXTT3=
EXTT4=
EXTT5=
EXTT6=
EXTT7=
EXTT8=
EXTT9=
PLAYORDER=
